<svg width="101" height="68" viewBox="0 0 101 68" fill="none" xmlns="http://www.w3.org/2000/svg">
<g id="Quote">
<g id="Group" filter="url(#filter0_d_431_10220)">
<g id="Group_2">
<path id="Vector" d="M77.0219 37.2467L79.8312 37.1813C110.603 36.6587 100.346 -8.55212 67.4179 3.40388C43.1139 12.2239 47.6219 52.7959 73.6245 59.4599C85.1232 62.3999 97.9285 60.3092 88.3899 57.0425C80.2232 54.2985 73.6245 46.3935 74.0819 39.9255C74.2125 38.4881 75.4539 37.2467 77.0219 37.2467Z" fill="#F8D265"/>
<path id="Vector_2" d="M16.8717 1.77043C-12.7243 13.1384 -0.703007 62.7919 32.1596 64.9479C40.7183 65.5359 42.9397 63.5106 36.4717 61.0932C30.1997 58.7412 22.2944 47.6346 21.445 40.1212C21.249 38.6186 22.4249 37.3771 23.9276 37.3771C32.5516 37.3771 36.145 37.3774 41.1757 30.452C53.5237 13.3347 37.125 -6.00424 16.8717 1.77043Z" fill="#F8D265"/>
</g>
</g>
</g>
<defs>
<filter id="filter0_d_431_10220" x="0" y="0" width="100.256" height="67.0505" filterUnits="userSpaceOnUse" color-interpolation-filters="sRGB">
<feFlood flood-opacity="0" result="BackgroundImageFix"/>
<feColorMatrix in="SourceAlpha" type="matrix" values="0 0 0 0 0 0 0 0 0 0 0 0 0 0 0 0 0 0 127 0" result="hardAlpha"/>
<feOffset dx="2" dy="2"/>
<feComposite in2="hardAlpha" operator="out"/>
<feColorMatrix type="matrix" values="0 0 0 0 0.996078 0 0 0 0 0.0980392 0 0 0 0 0.47451 0 0 0 1 0"/>
<feBlend mode="normal" in2="BackgroundImageFix" result="effect1_dropShadow_431_10220"/>
<feBlend mode="normal" in="SourceGraphic" in2="effect1_dropShadow_431_10220" result="shape"/>
</filter>
</defs>
</svg>
